<svg xmlns="http://www.w3.org/2000/svg" viewBox="0 0 4981.83797 662.38515"><path d="M840.239,1124.48035c-30.36205,14.77073-91.08615,29.37738-168.87848,29.37738-180.20293,0-315.92941-110.288-315.92941-313.30355,0-193.82471,135.5626-325.28413,333.81824-325.28413,79.5978,0,129.98231,16.576,151.81024,27.57211L821.201,607.99739c-31.34692-14.77073-75.823-25.76663-128.99783-25.76663-149.84089,0-249.46115,92.72733-249.46115,255.36939,0,151.64616,90.10127,248.96871,245.68633,248.96871,50.22063,0,101.42573-10.17531,134.742-25.76663Z" transform="translate(-355.43111 -492.45745)" style="fill:#424266"/><path d="M1345.89034,918.67487c0,164.44733-117.67337,236.16753-228.6181,236.16753-124.23813,0-220.084-88.13192-220.084-228.78217,0-148.856,100.60513-236.16753,227.63322-236.16753C1256.77354,689.8927,1345.89034,782.78411,1345.89034,918.67487Zm-364.1807,4.59541c0,97.32275,57.93415,170.848,139.5013,170.848,79.5978,0,139.5013-72.5406,139.5013-172.81758,0-75.33074-38.89616-170.848-137.532-170.848C1024.38063,750.61679,981.70964,838.74891,981.70964,923.27028Z" transform="translate(-355.43111 -492.45745)" style="fill:#424266"/><path d="M1451.25477,492.45745h83.5365v652.37372h-83.5365Z" transform="translate(-355.43111 -492.45745)" style="fill:#424266"/><path d="M2090.499,918.67487c0,164.44733-117.67336,236.16753-228.61809,236.16753-124.23813,0-220.084-88.13192-220.084-228.78217,0-148.856,100.60513-236.16753,227.63321-236.16753C2001.38216,689.8927,2090.499,782.78411,2090.499,918.67487Zm-364.18029,4.59541c0,97.32275,57.93415,170.848,139.5013,170.848,79.5978,0,139.5013-72.5406,139.5013-172.81758,0-75.33074-38.89616-170.848-137.532-170.848s-141.47065,88.2962-141.47065,172.81757Z" transform="translate(-355.43111 -492.45745)" style="fill:#424266"/><path d="M2195.86339,838.74891c0-52.35406-.98488-97.32275-3.77483-138.6807h73.033l2.78994,87.31132h3.77482c20.84306-59.73942,71.06369-97.32275,127.02809-97.32275a87.9102,87.9102,0,0,1,23.633,2.78994v76.31542a127.21278,127.21278,0,0,0-28.3927-2.78995c-58.75475,0-100.60514,43.16343-111.9292,103.88752a222.97142,222.97142,0,0,0-3.77482,37.74741v236.98813h-82.552V838.74891Z" transform="translate(-355.43111 -492.45745)" style="fill:#424266"/><path d="M2709.88456,532.83073c39.881-6.40069,92.071-11.98078,158.375-11.98078,81.56715,0,141.30677,18.38126,179.21806,51.53346,35.12134,29.37737,55.9648,74.34606,55.9648,129.49007,0,56.12867-17.06824,100.11269-49.4,132.28-43.65586,44.9687-114.71914,67.94538-195.46609,67.94538-24.61788,0-47.43029-.98467-66.46827-5.58009v248.14811h-82.552V532.83073Zm82.552,298.69689c18.05311,4.59542,40.86551,6.40069,68.27374,6.40069,99.62025,0,160.34435-46.938,160.34435-132.28,0-81.73143-59.73922-121.28411-150.82536-121.28411-36.10622,0-63.514,2.78994-77.79233,6.40068V831.52762Z" transform="translate(-355.43111 -492.45745)" style="fill:#424266"/><path d="M3441.19977,1144.83117l-6.56477-56.12868h-2.78994c-25.60276,34.95747-75.00239,66.14011-140.3219,66.14011-92.89161,0-140.32189-63.35-140.32189-127.6848,0-107.49806,98.63578-166.2528,276.04837-165.43221V852.535c0-36.76274-10.50347-102.90264-104.38-102.90264-42.671,0-87.31132,12.80137-119.47884,33.152l-19.038-53.33873c37.91169-23.96136,92.89161-39.55268,150.82536-39.55268,140.3219,0,174.45876,92.72733,174.45876,181.84412v166.25281c0,38.568,1.96935,76.31541,7.54965,106.51338h-75.98686Zm-12.30894-226.9769c-91.08614-1.80527-194.48122,13.786-194.48122,100.1127,0,52.35405,36.10622,77.136,78.7772,77.136,59.73922,0,97.65091-36.76274,110.94472-74.34607a80.4675,80.4675,0,0,0,4.7593-25.76663Z" transform="translate(-355.43111 -492.45745)" style="fill:#424266"/><path d="M3644.21551,492.45745h83.5365v652.37372h-83.5365Z" transform="translate(-355.43111 -492.45745)" style="fill:#424266"/><path d="M3914.51931,937.05613c1.96975,109.30334,74.01791,154.43611,157.39013,154.43611,59.73922,0,95.84544-10.17531,127.02808-22.97669l14.27869,57.93415c-29.37717,12.80138-79.5978,27.5721-152.79511,27.5721-141.30677,0-225.82815-90.10146-225.82815-224.18675S3916.1605,690.057,4049.91763,690.057c149.84049,0,189.72193,127.68479,189.72193,209.416a324.50143,324.50143,0,0,1-2.79035,37.74741h-322.3299Zm244.86613-57.76987c.98488-51.53346-21.82753-131.45941-115.704-131.45941-84.35709,0-121.44819,75.33074-128.01295,131.45941Z" transform="translate(-355.43111 -492.45745)" style="fill:#424266"/><path d="M4443.96793,572.38341v127.6848h119.47844V761.6129H4443.96793V1001.391c0,55.144,16.08336,86.32665,62.52957,86.32665,21.82753,0,37.91169-2.78995,48.41515-5.58009l3.77442,60.56c-16.08335,6.40069-41.68611,10.99591-74.0179,10.99591-38.89657,0-70.24269-11.98078-90.10127-33.97259-23.633-23.96136-32.3318-63.35-32.3318-115.704V761.44862h-71.06328V699.90393h71.06328V593.39054Z" transform="translate(-355.43111 -492.45745)" style="fill:#424266"/><path d="M4757.92759,572.38341v127.6848H4877.406V761.6129H4757.92759V1001.391c0,55.144,16.08336,86.32665,62.52957,86.32665,21.82753,0,37.91169-2.78995,48.41516-5.58009l3.77442,60.56c-16.08336,6.40069-41.68611,10.99591-74.01791,10.99591-38.89657,0-70.24269-11.98078-90.10127-33.97259-23.633-23.96136-32.3318-63.35-32.3318-115.704V761.44862h-71.06328V699.90393h71.06328V593.39054Z" transform="translate(-355.43111 -492.45745)" style="fill:#424266"/><path d="M5012.14884,937.05613c1.96975,109.30334,74.01791,154.43611,157.39013,154.43611,59.73922,0,95.84543-10.17531,127.02808-22.97669l14.27869,57.93415c-29.37718,12.80138-79.5978,27.5721-152.79512,27.5721-141.30677,0-225.82814-90.10146-225.82814-224.18675S5013.79,690.057,5147.54716,690.057c149.84048,0,189.72192,127.68479,189.72192,209.416a324.50141,324.50141,0,0,1-2.79034,37.74741h-322.3299Zm244.70105-57.76987c.98487-51.53346-21.82753-131.45941-115.704-131.45941-84.3571,0-121.44819,75.33074-128.013,131.45941Z" transform="translate(-355.43111 -492.45745)" style="fill:#424266"/></svg>